<?xml version="1.0" standalone="no"?>
<!DOCTYPE svg PUBLIC "-//W3C//DTD SVG 20010904//EN"
 "http://www.w3.org/TR/2001/REC-SVG-20010904/DTD/svg10.dtd">
<svg version="1.0" xmlns="http://www.w3.org/2000/svg"
 width="700.000000pt" height="700.000000pt" viewBox="0 0 700.000000 700.000000"
 preserveAspectRatio="xMidYMid meet">

<g transform="translate(0.000000,700.000000) scale(0.100000,-0.100000)"
fill="#000000" stroke="none">
<path d="M0 3500 l0 -3500 3500 0 3500 0 0 3500 0 3500 -3500 0 -3500 0 0
-3500z m5604 1578 c-11 -18 -276 -439 -509 -808 -106 -168 -328 -521 -495
-785 -166 -264 -315 -500 -331 -525 l-28 -45 522 -5 523 -5 -300 -481 c-166
-265 -307 -489 -315 -498 -12 -15 -147 -16 -1637 -16 -893 0 -1624 4 -1624 8
0 8 483 781 725 1162 278 438 635 1011 635 1020 0 7 -169 9 -520 7 -429 -2
-519 0 -515 11 3 8 100 165 216 350 117 185 252 401 301 480 l90 142 1634 0
c1306 0 1634 -3 1628 -12z"/>
<path d="M2260 4604 c-102 -162 -186 -301 -188 -307 -2 -9 231 -11 1004 -9
603 2 1011 -1 1016 -6 6 -6 -78 -148 -213 -363 -122 -195 -314 -499 -426 -677
-112 -177 -203 -325 -203 -327 0 -3 172 -5 383 -5 l382 0 176 283 c97 155 375
599 618 986 242 388 441 708 441 713 0 4 -631 8 -1402 8 l-1403 0 -185 -296z"/>
<path d="M2998 4093 c-8 -10 -44 -65 -80 -123 -36 -58 -308 -494 -605 -970
-296 -476 -543 -871 -547 -877 -6 -10 276 -13 1396 -13 l1403 1 191 307 192
307 -1019 3 c-561 1 -1019 5 -1019 8 0 3 194 311 430 686 237 374 430 681 430
683 0 1 -170 3 -378 4 -350 1 -380 0 -394 -16z"/>
</g>
</svg>
